<mxfile host="Electron" modified="2023-11-14T19:09:30.072Z" agent="Mozilla/5.0 (Windows NT 10.0; Win64; x64) AppleWebKit/537.36 (KHTML, like Gecko) draw.io/22.0.3 Chrome/114.0.5735.289 Electron/25.8.4 Safari/537.36" etag="nwmWjEvdUXPx-fhXTdfL" version="22.0.3" type="device">
  <diagram name="Page-1" id="ZuzQ8OdkfvgDuYbueFxv">
    <mxGraphModel dx="1816" dy="1746" grid="1" gridSize="3.937" guides="1" tooltips="1" connect="1" arrows="1" fold="1" page="1" pageScale="1" pageWidth="827" pageHeight="1169" background="none" math="0" shadow="0">
      <root>
        <mxCell id="0" />
        <mxCell id="1" parent="0" />
        <mxCell id="2LhIiehr4dJAi9wvziFf-1" value="" style="endArrow=classic;startArrow=classic;html=1;rounded=0;" parent="1" edge="1">
          <mxGeometry width="50" height="50" relative="1" as="geometry">
            <mxPoint x="-433" as="sourcePoint" />
            <mxPoint x="433" as="targetPoint" />
          </mxGeometry>
        </mxCell>
        <mxCell id="2LhIiehr4dJAi9wvziFf-2" value="" style="endArrow=classic;startArrow=classic;html=1;rounded=0;" parent="1" edge="1">
          <mxGeometry width="50" height="50" relative="1" as="geometry">
            <mxPoint y="433" as="sourcePoint" />
            <mxPoint y="-433" as="targetPoint" />
          </mxGeometry>
        </mxCell>
        <mxCell id="2LhIiehr4dJAi9wvziFf-11" value="" style="endArrow=none;html=1;rounded=0;" parent="1" edge="1">
          <mxGeometry width="50" height="50" relative="1" as="geometry">
            <mxPoint x="-4" y="-39" as="sourcePoint" />
            <mxPoint x="4" y="-39" as="targetPoint" />
          </mxGeometry>
        </mxCell>
        <mxCell id="2LhIiehr4dJAi9wvziFf-12" value="" style="endArrow=none;html=1;rounded=0;" parent="1" edge="1">
          <mxGeometry width="50" height="50" relative="1" as="geometry">
            <mxPoint x="-4.003" y="-78.743" as="sourcePoint" />
            <mxPoint x="3.996999999999999" y="-78.743" as="targetPoint" />
          </mxGeometry>
        </mxCell>
        <mxCell id="2LhIiehr4dJAi9wvziFf-13" value="" style="endArrow=none;html=1;rounded=0;" parent="1" edge="1">
          <mxGeometry width="50" height="50" relative="1" as="geometry">
            <mxPoint x="-4" y="-117.74" as="sourcePoint" />
            <mxPoint x="4" y="-117.74" as="targetPoint" />
          </mxGeometry>
        </mxCell>
        <mxCell id="2LhIiehr4dJAi9wvziFf-14" value="" style="endArrow=none;html=1;rounded=0;" parent="1" edge="1">
          <mxGeometry width="50" height="50" relative="1" as="geometry">
            <mxPoint x="-4.003" y="-157.483" as="sourcePoint" />
            <mxPoint x="3.997" y="-157.483" as="targetPoint" />
          </mxGeometry>
        </mxCell>
        <mxCell id="2LhIiehr4dJAi9wvziFf-15" value="" style="endArrow=none;html=1;rounded=0;" parent="1" edge="1">
          <mxGeometry width="50" height="50" relative="1" as="geometry">
            <mxPoint x="-4.003" y="-196.853" as="sourcePoint" />
            <mxPoint x="3.997" y="-196.853" as="targetPoint" />
          </mxGeometry>
        </mxCell>
        <mxCell id="2LhIiehr4dJAi9wvziFf-16" value="" style="endArrow=none;html=1;rounded=0;strokeColor=default;" parent="1" edge="1">
          <mxGeometry width="50" height="50" relative="1" as="geometry">
            <mxPoint x="39.37" y="-4" as="sourcePoint" />
            <mxPoint x="39.37" y="4" as="targetPoint" />
          </mxGeometry>
        </mxCell>
        <mxCell id="2LhIiehr4dJAi9wvziFf-17" value="" style="endArrow=none;html=1;rounded=0;strokeColor=default;" parent="1" edge="1">
          <mxGeometry width="50" height="50" relative="1" as="geometry">
            <mxPoint x="78.74" y="-4" as="sourcePoint" />
            <mxPoint x="78.74" y="4" as="targetPoint" />
          </mxGeometry>
        </mxCell>
        <mxCell id="2LhIiehr4dJAi9wvziFf-18" value="" style="endArrow=none;html=1;rounded=0;strokeColor=default;" parent="1" edge="1">
          <mxGeometry width="50" height="50" relative="1" as="geometry">
            <mxPoint x="118.10999999999999" y="-4" as="sourcePoint" />
            <mxPoint x="118.10999999999999" y="4" as="targetPoint" />
          </mxGeometry>
        </mxCell>
        <mxCell id="2LhIiehr4dJAi9wvziFf-19" value="" style="endArrow=none;html=1;rounded=0;strokeColor=default;" parent="1" edge="1">
          <mxGeometry width="50" height="50" relative="1" as="geometry">
            <mxPoint x="157.48" y="-4" as="sourcePoint" />
            <mxPoint x="157.48" y="4" as="targetPoint" />
          </mxGeometry>
        </mxCell>
        <mxCell id="2LhIiehr4dJAi9wvziFf-20" value="" style="endArrow=none;html=1;rounded=0;strokeColor=default;" parent="1" edge="1">
          <mxGeometry width="50" height="50" relative="1" as="geometry">
            <mxPoint x="196.85" y="-4" as="sourcePoint" />
            <mxPoint x="196.85" y="4" as="targetPoint" />
          </mxGeometry>
        </mxCell>
        <mxCell id="2LhIiehr4dJAi9wvziFf-21" value="" style="endArrow=none;html=1;rounded=0;strokeColor=default;" parent="1" edge="1">
          <mxGeometry width="50" height="50" relative="1" as="geometry">
            <mxPoint x="-196.84999999999997" y="-4" as="sourcePoint" />
            <mxPoint x="-196.84999999999997" y="4" as="targetPoint" />
          </mxGeometry>
        </mxCell>
        <mxCell id="2LhIiehr4dJAi9wvziFf-22" value="" style="endArrow=none;html=1;rounded=0;strokeColor=default;" parent="1" edge="1">
          <mxGeometry width="50" height="50" relative="1" as="geometry">
            <mxPoint x="-157.48" y="-4" as="sourcePoint" />
            <mxPoint x="-157.48" y="4" as="targetPoint" />
          </mxGeometry>
        </mxCell>
        <mxCell id="2LhIiehr4dJAi9wvziFf-23" value="" style="endArrow=none;html=1;rounded=0;strokeColor=default;" parent="1" edge="1">
          <mxGeometry width="50" height="50" relative="1" as="geometry">
            <mxPoint x="-118.10999999999999" y="-4" as="sourcePoint" />
            <mxPoint x="-118.10999999999999" y="4" as="targetPoint" />
          </mxGeometry>
        </mxCell>
        <mxCell id="2LhIiehr4dJAi9wvziFf-24" value="" style="endArrow=none;html=1;rounded=0;strokeColor=default;" parent="1" edge="1">
          <mxGeometry width="50" height="50" relative="1" as="geometry">
            <mxPoint x="-78.73999999999998" y="-4" as="sourcePoint" />
            <mxPoint x="-78.73999999999998" y="4" as="targetPoint" />
          </mxGeometry>
        </mxCell>
        <mxCell id="2LhIiehr4dJAi9wvziFf-25" value="" style="endArrow=none;html=1;rounded=0;strokeColor=default;" parent="1" edge="1">
          <mxGeometry width="50" height="50" relative="1" as="geometry">
            <mxPoint x="-39.369999999999976" y="-4" as="sourcePoint" />
            <mxPoint x="-39.369999999999976" y="4" as="targetPoint" />
          </mxGeometry>
        </mxCell>
        <mxCell id="2LhIiehr4dJAi9wvziFf-26" value="" style="endArrow=none;html=1;rounded=0;" parent="1" edge="1">
          <mxGeometry width="50" height="50" relative="1" as="geometry">
            <mxPoint x="-4" y="197.22" as="sourcePoint" />
            <mxPoint x="4" y="197.22" as="targetPoint" />
          </mxGeometry>
        </mxCell>
        <mxCell id="2LhIiehr4dJAi9wvziFf-27" value="" style="endArrow=none;html=1;rounded=0;" parent="1" edge="1">
          <mxGeometry width="50" height="50" relative="1" as="geometry">
            <mxPoint x="-4.003" y="157.477" as="sourcePoint" />
            <mxPoint x="3.997" y="157.477" as="targetPoint" />
          </mxGeometry>
        </mxCell>
        <mxCell id="2LhIiehr4dJAi9wvziFf-28" value="" style="endArrow=none;html=1;rounded=0;" parent="1" edge="1">
          <mxGeometry width="50" height="50" relative="1" as="geometry">
            <mxPoint x="-4" y="118.47999999999999" as="sourcePoint" />
            <mxPoint x="4" y="118.47999999999999" as="targetPoint" />
          </mxGeometry>
        </mxCell>
        <mxCell id="2LhIiehr4dJAi9wvziFf-29" value="" style="endArrow=none;html=1;rounded=0;" parent="1" edge="1">
          <mxGeometry width="50" height="50" relative="1" as="geometry">
            <mxPoint x="-4.003" y="78.737" as="sourcePoint" />
            <mxPoint x="3.997" y="78.737" as="targetPoint" />
          </mxGeometry>
        </mxCell>
        <mxCell id="2LhIiehr4dJAi9wvziFf-30" value="" style="endArrow=none;html=1;rounded=0;" parent="1" edge="1">
          <mxGeometry width="50" height="50" relative="1" as="geometry">
            <mxPoint x="-4.003" y="39.36699999999999" as="sourcePoint" />
            <mxPoint x="3.997" y="39.36699999999999" as="targetPoint" />
          </mxGeometry>
        </mxCell>
        <mxCell id="2LhIiehr4dJAi9wvziFf-31" value="" style="endArrow=none;html=1;rounded=0;strokeColor=default;" parent="1" edge="1">
          <mxGeometry width="50" height="50" relative="1" as="geometry">
            <mxPoint x="-393.69999999999993" y="-4" as="sourcePoint" />
            <mxPoint x="-393.69999999999993" y="4" as="targetPoint" />
          </mxGeometry>
        </mxCell>
        <mxCell id="2LhIiehr4dJAi9wvziFf-32" value="" style="endArrow=none;html=1;rounded=0;strokeColor=default;" parent="1" edge="1">
          <mxGeometry width="50" height="50" relative="1" as="geometry">
            <mxPoint x="-354.33" y="-4" as="sourcePoint" />
            <mxPoint x="-354.33" y="4" as="targetPoint" />
          </mxGeometry>
        </mxCell>
        <mxCell id="2LhIiehr4dJAi9wvziFf-33" value="" style="endArrow=none;html=1;rounded=0;strokeColor=default;" parent="1" edge="1">
          <mxGeometry width="50" height="50" relative="1" as="geometry">
            <mxPoint x="-314.96" y="-4" as="sourcePoint" />
            <mxPoint x="-314.96" y="4" as="targetPoint" />
          </mxGeometry>
        </mxCell>
        <mxCell id="2LhIiehr4dJAi9wvziFf-34" value="" style="endArrow=none;html=1;rounded=0;strokeColor=default;" parent="1" edge="1">
          <mxGeometry width="50" height="50" relative="1" as="geometry">
            <mxPoint x="-275.59" y="-4" as="sourcePoint" />
            <mxPoint x="-275.59" y="4" as="targetPoint" />
          </mxGeometry>
        </mxCell>
        <mxCell id="2LhIiehr4dJAi9wvziFf-35" value="" style="endArrow=none;html=1;rounded=0;strokeColor=default;" parent="1" edge="1">
          <mxGeometry width="50" height="50" relative="1" as="geometry">
            <mxPoint x="-236.21999999999997" y="-4" as="sourcePoint" />
            <mxPoint x="-236.21999999999997" y="4" as="targetPoint" />
          </mxGeometry>
        </mxCell>
        <mxCell id="2LhIiehr4dJAi9wvziFf-36" value="" style="endArrow=none;html=1;rounded=0;strokeColor=default;" parent="1" edge="1">
          <mxGeometry width="50" height="50" relative="1" as="geometry">
            <mxPoint x="236.21999999999997" y="-4" as="sourcePoint" />
            <mxPoint x="236.21999999999997" y="4" as="targetPoint" />
          </mxGeometry>
        </mxCell>
        <mxCell id="2LhIiehr4dJAi9wvziFf-37" value="" style="endArrow=none;html=1;rounded=0;strokeColor=default;" parent="1" edge="1">
          <mxGeometry width="50" height="50" relative="1" as="geometry">
            <mxPoint x="275.59" y="-4" as="sourcePoint" />
            <mxPoint x="275.59" y="4" as="targetPoint" />
          </mxGeometry>
        </mxCell>
        <mxCell id="2LhIiehr4dJAi9wvziFf-38" value="" style="endArrow=none;html=1;rounded=0;strokeColor=default;" parent="1" edge="1">
          <mxGeometry width="50" height="50" relative="1" as="geometry">
            <mxPoint x="314.96" y="-4" as="sourcePoint" />
            <mxPoint x="314.96" y="4" as="targetPoint" />
          </mxGeometry>
        </mxCell>
        <mxCell id="2LhIiehr4dJAi9wvziFf-39" value="" style="endArrow=none;html=1;rounded=0;strokeColor=default;" parent="1" edge="1">
          <mxGeometry width="50" height="50" relative="1" as="geometry">
            <mxPoint x="354.33" y="-4" as="sourcePoint" />
            <mxPoint x="354.33" y="4" as="targetPoint" />
          </mxGeometry>
        </mxCell>
        <mxCell id="2LhIiehr4dJAi9wvziFf-40" value="" style="endArrow=none;html=1;rounded=0;strokeColor=default;" parent="1" edge="1">
          <mxGeometry width="50" height="50" relative="1" as="geometry">
            <mxPoint x="393.7" y="-4" as="sourcePoint" />
            <mxPoint x="393.7" y="4" as="targetPoint" />
          </mxGeometry>
        </mxCell>
        <mxCell id="2LhIiehr4dJAi9wvziFf-41" value="" style="endArrow=none;html=1;rounded=0;" parent="1" edge="1">
          <mxGeometry width="50" height="50" relative="1" as="geometry">
            <mxPoint x="-4" y="394.07" as="sourcePoint" />
            <mxPoint x="4" y="394.07" as="targetPoint" />
          </mxGeometry>
        </mxCell>
        <mxCell id="2LhIiehr4dJAi9wvziFf-42" value="" style="endArrow=none;html=1;rounded=0;" parent="1" edge="1">
          <mxGeometry width="50" height="50" relative="1" as="geometry">
            <mxPoint x="-4.003" y="354.327" as="sourcePoint" />
            <mxPoint x="3.997" y="354.327" as="targetPoint" />
          </mxGeometry>
        </mxCell>
        <mxCell id="2LhIiehr4dJAi9wvziFf-43" value="" style="endArrow=none;html=1;rounded=0;" parent="1" edge="1">
          <mxGeometry width="50" height="50" relative="1" as="geometry">
            <mxPoint x="-4" y="315.33" as="sourcePoint" />
            <mxPoint x="4" y="315.33" as="targetPoint" />
          </mxGeometry>
        </mxCell>
        <mxCell id="2LhIiehr4dJAi9wvziFf-44" value="" style="endArrow=none;html=1;rounded=0;" parent="1" edge="1">
          <mxGeometry width="50" height="50" relative="1" as="geometry">
            <mxPoint x="-4.003" y="275.587" as="sourcePoint" />
            <mxPoint x="3.997" y="275.587" as="targetPoint" />
          </mxGeometry>
        </mxCell>
        <mxCell id="2LhIiehr4dJAi9wvziFf-45" value="" style="endArrow=none;html=1;rounded=0;" parent="1" edge="1">
          <mxGeometry width="50" height="50" relative="1" as="geometry">
            <mxPoint x="-4.003" y="236.21699999999998" as="sourcePoint" />
            <mxPoint x="3.997" y="236.21699999999998" as="targetPoint" />
          </mxGeometry>
        </mxCell>
        <mxCell id="2LhIiehr4dJAi9wvziFf-46" value="" style="endArrow=none;html=1;rounded=0;" parent="1" edge="1">
          <mxGeometry width="50" height="50" relative="1" as="geometry">
            <mxPoint x="-4" y="-235.85" as="sourcePoint" />
            <mxPoint x="4" y="-235.85" as="targetPoint" />
          </mxGeometry>
        </mxCell>
        <mxCell id="2LhIiehr4dJAi9wvziFf-47" value="" style="endArrow=none;html=1;rounded=0;" parent="1" edge="1">
          <mxGeometry width="50" height="50" relative="1" as="geometry">
            <mxPoint x="-4.003" y="-275.593" as="sourcePoint" />
            <mxPoint x="3.997" y="-275.593" as="targetPoint" />
          </mxGeometry>
        </mxCell>
        <mxCell id="2LhIiehr4dJAi9wvziFf-48" value="" style="endArrow=none;html=1;rounded=0;" parent="1" edge="1">
          <mxGeometry width="50" height="50" relative="1" as="geometry">
            <mxPoint x="-4" y="-314.59000000000003" as="sourcePoint" />
            <mxPoint x="4" y="-314.59000000000003" as="targetPoint" />
          </mxGeometry>
        </mxCell>
        <mxCell id="2LhIiehr4dJAi9wvziFf-49" value="" style="endArrow=none;html=1;rounded=0;" parent="1" edge="1">
          <mxGeometry width="50" height="50" relative="1" as="geometry">
            <mxPoint x="-4.003" y="-354.33299999999997" as="sourcePoint" />
            <mxPoint x="3.997" y="-354.33299999999997" as="targetPoint" />
          </mxGeometry>
        </mxCell>
        <mxCell id="2LhIiehr4dJAi9wvziFf-50" value="" style="endArrow=none;html=1;rounded=0;" parent="1" edge="1">
          <mxGeometry width="50" height="50" relative="1" as="geometry">
            <mxPoint x="-4.003" y="-393.703" as="sourcePoint" />
            <mxPoint x="3.997" y="-393.703" as="targetPoint" />
          </mxGeometry>
        </mxCell>
        <mxCell id="2LhIiehr4dJAi9wvziFf-51" value="10" style="text;html=1;strokeColor=none;fillColor=none;align=center;verticalAlign=middle;whiteSpace=wrap;rounded=0;fontSize=8;" parent="1" vertex="1">
          <mxGeometry x="-12" y="-389.83" width="8.13" height="7.88" as="geometry" />
        </mxCell>
        <mxCell id="2LhIiehr4dJAi9wvziFf-52" value="10" style="text;html=1;strokeColor=none;fillColor=none;align=center;verticalAlign=middle;whiteSpace=wrap;rounded=0;fontSize=8;" parent="1" vertex="1">
          <mxGeometry x="-389.83" y="3.87" width="7.88" height="7.88" as="geometry" />
        </mxCell>
        <mxCell id="2LhIiehr4dJAi9wvziFf-54" value="10" style="text;html=1;strokeColor=none;fillColor=none;align=center;verticalAlign=middle;whiteSpace=wrap;rounded=0;fontSize=8;" parent="1" vertex="1">
          <mxGeometry x="-11.752999999999943" y="381.887" width="7.88" height="7.88" as="geometry" />
        </mxCell>
        <mxCell id="2LhIiehr4dJAi9wvziFf-55" value="10" style="text;html=1;strokeColor=none;fillColor=none;align=center;verticalAlign=middle;whiteSpace=wrap;rounded=0;fontSize=8;" parent="1" vertex="1">
          <mxGeometry x="381.884" y="3.874000000000019" width="7.88" height="7.88" as="geometry" />
        </mxCell>
        <mxCell id="2LhIiehr4dJAi9wvziFf-56" value="" style="endArrow=none;dashed=1;html=1;rounded=0;" parent="1" edge="1">
          <mxGeometry width="50" height="50" relative="1" as="geometry">
            <mxPoint x="-39" y="433" as="sourcePoint" />
            <mxPoint x="-39" y="-433" as="targetPoint" />
          </mxGeometry>
        </mxCell>
        <mxCell id="2LhIiehr4dJAi9wvziFf-57" value="" style="endArrow=none;dashed=1;html=1;rounded=0;" parent="1" edge="1">
          <mxGeometry width="50" height="50" relative="1" as="geometry">
            <mxPoint x="39.37000000000001" y="433.81" as="sourcePoint" />
            <mxPoint x="39.37000000000001" y="-432.19" as="targetPoint" />
          </mxGeometry>
        </mxCell>
        <mxCell id="2LhIiehr4dJAi9wvziFf-58" value="" style="endArrow=none;dashed=1;html=1;rounded=0;" parent="1" edge="1">
          <mxGeometry width="50" height="50" relative="1" as="geometry">
            <mxPoint x="-433" y="-39" as="sourcePoint" />
            <mxPoint x="434.37931034482756" y="-39" as="targetPoint" />
          </mxGeometry>
        </mxCell>
        <mxCell id="2LhIiehr4dJAi9wvziFf-59" value="" style="endArrow=none;dashed=1;html=1;rounded=0;" parent="1" edge="1">
          <mxGeometry width="50" height="50" relative="1" as="geometry">
            <mxPoint x="-433" y="39" as="sourcePoint" />
            <mxPoint x="433" y="39" as="targetPoint" />
          </mxGeometry>
        </mxCell>
        <mxCell id="g62bq-1CWd_v9XlTOT3H-1" value="1" style="text;html=1;strokeColor=none;fillColor=none;align=center;verticalAlign=middle;whiteSpace=wrap;rounded=0;fontSize=8;" vertex="1" parent="1">
          <mxGeometry x="-11.370000000000001" y="-35.43" width="7.5" height="6.75" as="geometry" />
        </mxCell>
        <mxCell id="g62bq-1CWd_v9XlTOT3H-2" value="1" style="text;html=1;strokeColor=none;fillColor=none;align=center;verticalAlign=middle;whiteSpace=wrap;rounded=0;fontSize=8;" vertex="1" parent="1">
          <mxGeometry x="-35.433" y="3.867000000000001" width="7.5" height="6.75" as="geometry" />
        </mxCell>
        <mxCell id="g62bq-1CWd_v9XlTOT3H-3" value="1" style="text;html=1;strokeColor=none;fillColor=none;align=center;verticalAlign=middle;whiteSpace=wrap;rounded=0;fontSize=8;" vertex="1" parent="1">
          <mxGeometry x="-11.366000000000001" y="43.304" width="7.5" height="6.75" as="geometry" />
        </mxCell>
        <mxCell id="g62bq-1CWd_v9XlTOT3H-4" value="1" style="text;html=1;strokeColor=none;fillColor=none;align=center;verticalAlign=middle;whiteSpace=wrap;rounded=0;fontSize=8;" vertex="1" parent="1">
          <mxGeometry x="27.561" y="3.8709999999999987" width="7.5" height="6.75" as="geometry" />
        </mxCell>
      </root>
    </mxGraphModel>
  </diagram>
</mxfile>
